<?xml version="1.0" encoding="utf-8"?>
<!-- Generator: Adobe Illustrator 24.1.1, SVG Export Plug-In . SVG Version: 6.00 Build 0)  -->
<svg version="1.1" id="Layer_1" xmlns="http://www.w3.org/2000/svg" xmlns:xlink="http://www.w3.org/1999/xlink" x="0px" y="0px"
	 viewBox="0 0 512 512" style="enable-background:new 0 0 512 512;" xml:space="preserve">
	<g id="XMLID_2_">
		<path id="XMLID_6_" class="st0" d="M384.4,39.4v78.8H177.2c-67,0-112.6,22.8-136.3,59.9s-26.8,82.7-26.8,127.6l51.2-41
			c2.4-24.4,7.9-44.9,16.5-59.1c14.2-22.1,37.8-37,94.5-37h207.2v78.8l128.4-104L384.4,39.4z M497,207.2l-51.2,41
			c-2.4,24.4-7.9,44.9-16.5,59.1c-14.2,22.1-37.8,37-94.5,37H128.4v-78.8L0,370.2l128.4,102.4v-78.8h206.4
			c67,0,112.6-22.8,136.3-59.9C494.7,297,497,251.3,497,207.2z"/>
	</g>
</svg>
