<?xml version="1.0" encoding="utf-8"?>
<!-- Generator: Adobe Illustrator 24.1.1, SVG Export Plug-In . SVG Version: 6.00 Build 0)  -->
<svg version="1.1" id="Layer_1" xmlns="http://www.w3.org/2000/svg" xmlns:xlink="http://www.w3.org/1999/xlink" x="0px" y="0px"
	 viewBox="0 0 512 512" style="enable-background:new 0 0 512 512;" xml:space="preserve">
<style type="text/css">
	.st0{fill:#333333;}
</style>
<g id="XMLID_2_">
	<path id="XMLID_8_" class="st0" d="M378.1,40.2v77.2h-204c-65.4,0-110.3,22.1-133.9,59.1c-23.6,36.2-26,81.1-26,125.2l50.4-41
		c2.4-23.6,7.9-44.1,16.5-58.3c14.2-22.1,37-37,92.9-37h203.2v77.2l126-102.4L378.1,40.2z M404.1,256
		c-59.9,0-107.9,48.8-107.9,107.9c0,59.9,48,107.9,107.9,107.9S512,423.8,512,363.9C512,304.8,463.2,256,404.1,256z M126,262.3
		L0,364.7l126,100.8v-77.2h148.9c-1.6-7.9-2.4-15.8-2.4-24.4s0.8-16.5,2.4-24.4H126V262.3z M423,301.7v126h-29.1v-100h-25.2v-22.1
		L423,301.7z"/>
</g>
</svg>
